HIERARCHY
ROOT Hips
{
  OFFSET 55.0133 96.1855 7.58567
  CHANNELS 6 Xposition Yposition Zposition Zrotation Xrotation Yrotation
  JOINT spine
  {
    OFFSET 0 8.13249 0.467659
    CHANNELS 3 Zrotation Xrotation Yrotation
    JOINT spine1
    {
      OFFSET 0 10.3498 0
      CHANNELS 3 Zrotation Xrotation Yrotation
      JOINT spine2
      {
        OFFSET 0 9.91699 0
        CHANNELS 3 Zrotation Xrotation Yrotation
        JOINT Neck
        {
          OFFSET 0 25.461 1.2139
          CHANNELS 3 Zrotation Xrotation Yrotation
          JOINT Head
          {
            OFFSET 0 7.69245 0
            CHANNELS 3 Zrotation Xrotation Yrotation
            End Site
            {
              OFFSET 0 18.62 -6.14063
            }
          }
        }
        JOINT RightShoulder
        {
          OFFSET -4.17575 10.7096 -0.581445
          CHANNELS 3 Zrotation Xrotation Yrotation
          JOINT RightArm
          {
            OFFSET 0 14.0466 0
            CHANNELS 3 Zrotation Xrotation Yrotation
            JOINT RightArmRoll
            {
              OFFSET 0 7.09098 0
              CHANNELS 3 Zrotation Xrotation Yrotation
              JOINT RightForeArm
              {
                OFFSET 0 20.6535 0
                CHANNELS 3 Zrotation Xrotation Yrotation
                JOINT RightForeArmRoll
                {
                  OFFSET 0 7.95718 0
                  CHANNELS 3 Zrotation Xrotation Yrotation
                  JOINT RightHand
                  {
                    OFFSET 0 15.9683 0
                    CHANNELS 3 Zrotation Xrotation Yrotation
                    End Site
                    {
                      OFFSET 0 0 0
                    }
                  }
                }
              }
            }
          }
        }
        JOINT LeftShoulder
        {
          OFFSET 4.17575 10.7096 -0.581445
          CHANNELS 3 Zrotation Xrotation Yrotation
          JOINT LeftArm
          {
            OFFSET 0 14.0466 0
            CHANNELS 3 Zrotation Xrotation Yrotation
            JOINT LeftArmRoll
            {
              OFFSET 0 7.09098 0
              CHANNELS 3 Zrotation Xrotation Yrotation
              JOINT LeftForeArm
              {
                OFFSET 0 20.6535 0
                CHANNELS 3 Zrotation Xrotation Yrotation
                JOINT LeftForeArmRoll
                {
                  OFFSET 0 7.95718 0
                  CHANNELS 3 Zrotation Xrotation Yrotation
                  JOINT LeftHand
                  {
                    OFFSET 0 15.9683 0
                    CHANNELS 3 Zrotation Xrotation Yrotation
                    End Site
                    {
                      OFFSET 0 0 0
                    }
                  }
                }
              }
            }
          }
        }
      }
    }
  }
  JOINT RightUpLeg
  {
    OFFSET -7.20834 -1.32182 -1.10884
    CHANNELS 3 Zrotation Xrotation Yrotation
    JOINT RightUpLegRoll
    {
      OFFSET 0 18.7238 0
      CHANNELS 3 Zrotation Xrotation Yrotation
      JOINT RightLeg
      {
        OFFSET 0 -23.1866 0
        CHANNELS 3 Zrotation Xrotation Yrotation
        JOINT RightLegRoll
        {
          OFFSET 0 23.2624 0
          CHANNELS 3 Zrotation Xrotation Yrotation
          JOINT RightFoot
          {
            OFFSET 0 19.3621 0
            CHANNELS 3 Zrotation Xrotation Yrotation
            JOINT RightToeBase
            {
              OFFSET 0 16.1857 0
              CHANNELS 3 Zrotation Xrotation Yrotation
              End Site
              {
                OFFSET 0.00686052 7.83862 -0.903522
              }
            }
          }
        }
      }
    }
  }
  JOINT LeftUpLeg
  {
    OFFSET 7.20834 -1.32182 -1.10884
    CHANNELS 3 Zrotation Xrotation Yrotation
    JOINT LeftUpLegRoll
    {
      OFFSET 0 18.7239 0
      CHANNELS 3 Zrotation Xrotation Yrotation
      JOINT LeftLeg
      {
        OFFSET 0 23.1865 0
        CHANNELS 3 Zrotation Xrotation Yrotation
        JOINT LeftLegRoll
        {
          OFFSET 0 23.4775 0
          CHANNELS 3 Zrotation Xrotation Yrotation
          JOINT LeftFoot
          {
            OFFSET 0 19.147 0
            CHANNELS 3 Zrotation Xrotation Yrotation
            JOINT LeftToeBase
            {
              OFFSET 0 16.1857 0
              CHANNELS 3 Zrotation Xrotation Yrotation
              End Site
              {
                OFFSET -0.0307459 7.83863 -0.903522
              }
            }
          }
        }
      }
    }
  }
}
MOTION
Frames: 5
Frame Time: 0.00208333
54.391 96.2082 5.49692 0.381596 -0.661652 0.979638 0.185806 -2.34696 0.0849788 0.380148 -0.690865 0.15516 0.378314 0.954179 0.148792 -2.34361 19.7863 -2.79026 1.00099 -0.205511 -3.45952 33.4621 -17.1906 -13.3512 57.4823 40.8091 55.6801 -1.0354e-05 2.78558e-06 -2.95875e-05 -8.60295 0.397887 1.28631 8.03934e-07 -1.46811e-05 -3.01491 8.03064 -4.95138 0.697611 -45.3074 -14.7108 10.0016 -41.8642 30.5252 -49.6883 9.52618e-06 6.98277e-06 7.21664e-06 5.22691 -0.0396766 0.910522 -3.95586e-06 -5.43504e-07 3.03751 -8.03018 -4.95138 -0.697624 171.476 4.73796 4.38297 -180 7.01576e-15 179.057 178.282 9.64978 179.673 -2.99257e-07 -3.05125e-06 -0.0556473 -16.1137 67.3725 19.0644 8.13655 25.2335 -3.48658 -174.891 2.88383 -0.359461 4.54188e-06 -4.6773e-06 -1.01775 -1.10634 -10.7356 0.361592 2.68875e-06 -1.15184e-06 -0.169944 19.618 70.3863 -21.675 -8.12815 25.2371 3.48411 
54.3864 96.2083 5.49867 0.382209 -0.66605 0.980045 0.185556 -2.34655 0.0852019 0.379482 -0.690035 0.154916 0.377656 0.95501 0.148569 -2.34653 19.7778 -2.7894 1.0016 -0.200686 -3.45946 33.4582 -17.1901 -13.3512 57.4897 40.8094 55.677 -1.0354e-05 2.78558e-06 -2.95875e-05 -8.60301 0.398669 1.2865 8.03934e-07 -1.46811e-05 -3.01491 8.03064 -4.95138 0.697611 -45.3106 -14.7113 10.0018 -41.8656 30.524 -49.6812 9.52618e-06 6.98277e-06 7.21664e-06 5.22246 -0.0396768 0.911204 -3.95586e-06 -5.43504e-07 3.03751 -8.03018 -4.95138 -0.697624 171.476 4.7354 4.38348 -180 7.01576e-15 179.057 178.282 9.65349 179.673 -2.99257e-07 -3.05125e-06 -0.0556521 -16.1146 67.374 19.0651 8.13655 25.2335 -3.48658 -174.892 2.88098 -0.358802 4.54188e-06 -4.6773e-06 -1.01775 -1.10518 -10.7381 0.361776 2.68875e-06 -1.15184e-06 -0.169975 19.6193 70.3873 -21.676 -8.12815 25.2371 3.48411 
54.3884 96.2089 5.50374 0.382479 -0.670565 0.980753 0.185384 -2.34605 0.0854253 0.379052 -0.689038 0.154792 0.377235 0.956006 0.148459 -2.34844 19.7677 -2.78912 1.00142 -0.194353 -3.45973 33.4553 -17.1903 -13.3517 57.496 40.8097 55.674 -1.0354e-05 2.78558e-06 -2.95875e-05 -8.60271 0.399875 1.28664 8.03934e-07 -1.46811e-05 -3.0149 8.03064 -4.95138 0.697611 -45.3131 -14.7117 10.002 -41.8669 30.5239 -49.6756 9.52618e-06 6.98277e-06 7.21664e-06 5.21888 -0.0396771 0.911788 -3.95586e-06 -5.43504e-07 3.03751 -8.03018 -4.95138 -0.697624 171.476 4.73217 4.38377 -180 7.01576e-15 179.057 178.282 9.65629 179.673 -2.99257e-07 -3.05125e-06 -0.0556568 -16.1152 67.3753 19.0654 8.13655 25.2335 -3.48658 -174.892 2.87874 -0.358075 4.54188e-06 -4.6773e-06 -1.01776 -1.10375 -10.7414 0.361997 2.68875e-06 -1.15184e-06 -0.170005 19.6206 70.3883 -21.677 -8.12815 25.2371 3.48411 
54.3876 96.2086 5.50268 0.382358 -0.675185 0.981813 0.185298 -2.34546 0.0856455 0.37889 -0.68787 0.154802 0.377081 0.957175 0.148478 -2.34915 19.7561 -2.78951 1.00032 -0.186341 -3.46038 33.4532 -17.1912 -13.3529 57.5007 40.8099 55.6712 -1.0354e-05 2.78558e-06 -2.95875e-05 -8.60198 0.401553 1.28671 8.03934e-07 -1.46811e-05 -3.0149 8.03064 -4.95138 0.697611 -45.3148 -14.7119 10.0021 -41.8682 30.525 -49.6715 9.52618e-06 6.98277e-06 7.21664e-06 5.21624 -0.0396772 0.912266 -3.95586e-06 -5.43504e-07 3.03751 -8.03018 -4.95138 -0.697624 171.476 4.7282 4.38381 -180 7.01576e-15 179.057 178.283 9.658 179.673 -2.99257e-07 -3.05125e-06 -0.0556616 -16.1154 67.3762 19.0651 8.13655 25.2335 -3.48658 -174.892 2.87721 -0.35727 4.54188e-06 -4.6773e-06 -1.01776 -1.102 -10.7455 0.36226 2.68875e-06 -1.15184e-06 -0.170036 19.6219 70.3894 -21.6778 -8.12815 25.2371 3.48411 
54.3815 96.1985 5.45716 0.381707 -0.680298 0.983304 0.185356 -2.34465 0.0859356 0.379118 -0.68624 0.155064 0.377314 0.958805 0.148742 -2.34925 19.7409 -2.79055 0.998694 -0.17473 -3.46153 33.4517 -17.1936 -13.3556 57.5042 40.8106 55.6681 -1.0354e-05 2.78558e-06 -2.95875e-05 -8.60068 0.404062 1.28673 8.03934e-07 -1.46811e-05 -3.0149 8.03064 -4.95138 0.697611 -45.3157 -14.7116 10.0018 -41.8692 30.5277 -49.67 9.52618e-06 6.98277e-06 7.21664e-06 5.21524 -0.0396773 0.912567 -3.95586e-06 -5.43504e-07 3.03751 -8.03018 -4.95138 -0.697624 171.477 4.7229 4.38354 -180 7.01576e-15 179.057 178.283 9.65837 179.673 -2.99257e-07 -3.05125e-06 -0.0556663 -16.1154 67.3767 19.0642 8.13655 25.2335 -3.48658 -174.892 2.8763 -0.356368 4.54188e-06 -4.6773e-06 -1.01776 -1.09977 -10.751 0.362591 2.68875e-06 -1.15184e-06 -0.170066 19.6234 70.3908 -21.6784 -8.12815 25.2371 3.48411 
